/* XPM */
static char * close_pressed_xpm[] = {
"20 30 65 1",
" 	c None",
".	c #247648",
"+	c #237547",
"@	c #227446",
"#	c #217345",
"$	c #306C44",
"%	c #7E4B3C",
"&	c #B33538",
"*	c #CD2A35",
"=	c #B23638",
"-	c #7C4B3C",
";	c #5D5940",
">	c #CB2A35",
",	c #D52735",
"'	c #5C593F",
")	c #D42735",
"!	c #207244",
"~	c #2F6B43",
"{	c #CF2634",
"]	c #D22734",
"^	c #CB2B35",
"/	c #2F6B42",
"(	c #207144",
"_	c #7D4A3B",
":	c #D02634",
"<	c #72151C",
"[	c #7D171F",
"}	c #CC2533",
"|	c #1F7143",
"1	c #B33437",
"2	c #6A131A",
"3	c #7C171F",
"4	c #B23637",
"5	c #1F7043",
"6	c #CC2A36",
"7	c #7B161F",
"8	c #CB2533",
"9	c #1E7042",
"0	c #CA2532",
"a	c #CA2B35",
"b	c #1E6F42",
"c	c #B23437",
"d	c #B13537",
"e	c #1D6E41",
"f	c #7B493A",
"g	c #7A4A3A",
"h	c #2C6740",
"i	c #2B683F",
"j	c #1C6D40",
"k	c #58553C",
"l	c #56563C",
"m	c #CA2A35",
"n	c #1B6C3F",
"o	c #2A663D",
"p	c #7A4839",
"q	c #B03436",
"r	c #794939",
"s	c #29663E",
"t	c #1B6B3F",
"u	c #1B6B3E",
"v	c #1A6A3E",
"w	c #1A6A3D",
"x	c #19693D",
"y	c #19683C",
"z	c #18673B",
"....................",
"....................",
"++++++++++++++++++++",
"++++++++++++++++++++",
"++++++++++++++++++++",
"@@@@@@@@@@@@@@@@@@@@",
"@@@@@@@@@@@@@@@@@@@@",
"@@@@@@@@@@@@@@@@@@@@",
"######$%&**=-$######",
"#####;>,,,,,,>'#####",
"####;),,,,,,,,)'####",
"!!!~>,,{],,]{,,^/!!!",
"(((_,,:<[}}[<:,,-(((",
"|||1,,][2332[],,4|||",
"5556,,,}[2278,,,>555",
"999>,,,}[2270,,,a999",
"bbbc,,][2332[],,dbbb",
"eeef,,:<[}}[<:,,geee",
"eeeh>,,:],,]:,,aieee",
"jjjjk),,,,,,,,)ljjjj",
"jjjjjkm,,,,,,aljjjjj",
"nnnnnnopq66qrsnnnnnn",
"tttttttttttttttttttt",
"uuuuuuuuuuuuuuuuuuuu",
"vvvvvvvvvvvvvvvvvvvv",
"wwwwwwwwwwwwwwwwwwww",
"xxxxxxxxxxxxxxxxxxxx",
"yyyyyyyyyyyyyyyyyyyy",
"yyyyyyyyyyyyyyyyyyyy",
"zzzzzzzzzzzzzzzzzzzz"};
