/* XPM */
static char * close_active_xpm[] = {
"20 30 57 1",
" 	c None",
".	c #247648",
"+	c #237547",
"@	c #227446",
"#	c #217345",
"$	c #306C44",
"%	c #824B3C",
"&	c #C63D40",
"*	c #DD3A44",
"=	c #C53D41",
"-	c #814B3D",
";	c #5D593F",
">	c #DC3B44",
",	c #F04D54",
"'	c #F25056",
")	c #DB3B44",
"!	c #E8414A",
"~	c #E7414A",
"{	c #207244",
"]	c #2F6B43",
"^	c #2F6B42",
"/	c #207144",
"(	c #814A3C",
"_	c #F04E54",
":	c #1F7143",
"<	c #C63C40",
"[	c #C43E40",
"}	c #1F7043",
"|	c #DD3B44",
"1	c #DC3B43",
"2	c #1E7042",
"3	c #DB3B43",
"4	c #1E6F42",
"5	c #C63C41",
"6	c #C43D40",
"7	c #1D6E41",
"8	c #7F493B",
"9	c #7F4A3C",
"0	c #2C6740",
"a	c #DB3B42",
"b	c #2B683F",
"c	c #1C6D40",
"d	c #59553B",
"e	c #57563C",
"f	c #1B6C3F",
"g	c #2A663D",
"h	c #7E493A",
"i	c #C43C40",
"j	c #7E493B",
"k	c #29663E",
"l	c #1B6B3F",
"m	c #1B6B3E",
"n	c #1A6A3E",
"o	c #1A6A3D",
"p	c #19693D",
"q	c #19683C",
"r	c #18673B",
"....................",
"....................",
"++++++++++++++++++++",
"++++++++++++++++++++",
"++++++++++++++++++++",
"@@@@@@@@@@@@@@@@@@@@",
"@@@@@@@@@@@@@@@@@@@@",
"@@@@@@@@@@@@@@@@@@@@",
"######$%&**=-$######",
"#####;>,'''',);#####",
"####;!''''''''~;####",
"{{{]>'''''''''')^{{{",
"///(,''''''''''_-///",
":::<''''''''''''[:::",
"}}}|''''''''''''1}}}",
"2221''''''''''''3222",
"4445''''''''''''6444",
"7778,'''''''''',9777",
"77703''''''''''ab777",
"ccccd~''''''''~ecccc",
"cccccd3_'''',aeccccc",
"ffffffghi11ijkffffff",
"llllllllllllllllllll",
"mmmmmmmmmmmmmmmmmmmm",
"nnnnnnnnnnnnnnnnnnnn",
"oooooooooooooooooooo",
"pppppppppppppppppppp",
"qqqqqqqqqqqqqqqqqqqq",
"qqqqqqqqqqqqqqqqqqqq",
"rrrrrrrrrrrrrrrrrrrr"};
