/* XPM */
static char * close_prelight_xpm[] = {
"20 30 69 1",
" 	c None",
".	c #247648",
"+	c #237547",
"@	c #227446",
"#	c #217345",
"$	c #306C44",
"%	c #824B3C",
"&	c #C63D40",
"*	c #DD3A44",
"=	c #C53D41",
"-	c #814B3D",
";	c #5D593F",
">	c #DC3B44",
",	c #F04D54",
"'	c #F25056",
")	c #DB3B44",
"!	c #E8414A",
"~	c #E7414A",
"{	c #207244",
"]	c #2F6B43",
"^	c #EB4E54",
"/	c #EF4F55",
"(	c #2F6B42",
"_	c #207144",
":	c #814A3C",
"<	c #EC4E54",
"[	c #812B2E",
"}	c #8E2F33",
"|	c #E84D52",
"1	c #822B2E",
"2	c #F04E54",
"3	c #1F7143",
"4	c #C63C40",
"5	c #79282B",
"6	c #8D2F32",
"7	c #C43E40",
"8	c #1F7043",
"9	c #DD3B44",
"0	c #8C2E32",
"a	c #E74C52",
"b	c #DC3B43",
"c	c #1E7042",
"d	c #E64C52",
"e	c #DB3B43",
"f	c #1E6F42",
"g	c #C63C41",
"h	c #C43D40",
"i	c #1D6E41",
"j	c #7F493B",
"k	c #7F4A3C",
"l	c #2C6740",
"m	c #DB3B42",
"n	c #2B683F",
"o	c #1C6D40",
"p	c #59553B",
"q	c #57563C",
"r	c #1B6C3F",
"s	c #2A663D",
"t	c #7E493A",
"u	c #C43C40",
"v	c #7E493B",
"w	c #29663E",
"x	c #1B6B3F",
"y	c #1B6B3E",
"z	c #1A6A3E",
"A	c #1A6A3D",
"B	c #19693D",
"C	c #19683C",
"D	c #18673B",
"....................",
"....................",
"++++++++++++++++++++",
"++++++++++++++++++++",
"++++++++++++++++++++",
"@@@@@@@@@@@@@@@@@@@@",
"@@@@@@@@@@@@@@@@@@@@",
"@@@@@@@@@@@@@@@@@@@@",
"######$%&**=-$######",
"#####;>,'''',);#####",
"####;!''''''''~;####",
"{{{]>''^/''/^'')({{{",
"___:,'<[}||}1<'2-___",
"3334''/}5665}/''7333",
"8889'''|}550a'''b888",
"cccb'''|}550d'''eccc",
"fffg''/}5665}/''hfff",
"iiij,'<1}||}1<',kiii",
"iiile''</''/<''mniii",
"oooop~''''''''~qoooo",
"ooooope2'''',mqooooo",
"rrrrrrstubbuvwrrrrrr",
"xxxxxxxxxxxxxxxxxxxx",
"yyyyyyyyyyyyyyyyyyyy",
"zzzzzzzzzzzzzzzzzzzz",
"AAAAAAAAAAAAAAAAAAAA",
"BBBBBBBBBBBBBBBBBBBB",
"CCCCCCCCCCCCCCCCCCCC",
"CCCCCCCCCCCCCCCCCCCC",
"DDDDDDDDDDDDDDDDDDDD"};
