/* XPM */
static char * hide_inactive_xpm[] = {
"20 30 54 1",
" 	c None",
".	c #247648",
"+	c #237547",
"@	c #227446",
"#	c #217345",
"$	c #2E794F",
"%	c #739983",
"&	c #AAB5AF",
"*	c #BCBEBD",
"=	c #BDBFBE",
"-	c #A9B4AD",
";	c #739984",
">	c #548B6C",
",	c #BBBDBC",
"'	c #C7C7C7",
")	c #C8C8C8",
"!	c #548A6C",
"~	c #C3C3C3",
"{	c #207244",
"]	c #2D784E",
"^	c #BBBEBD",
"/	c #2C774D",
"(	c #207144",
"_	c #729883",
":	c #719883",
"<	c #1F7143",
"[	c #AAB4AE",
"}	c #1F7043",
"|	c #1E7042",
"1	c #1E6F42",
"2	c #A8B3AD",
"3	c #A8B4AD",
"4	c #1D6E41",
"5	c #719782",
"6	c #6F9681",
"7	c #2A744B",
"8	c #BBBEBC",
"9	c #29744A",
"0	c #1C6D40",
"a	c #508668",
"b	c #C2C2C2",
"c	c #4F8668",
"d	c #1B6C3F",
"e	c #277248",
"f	c #6F9680",
"g	c #6E9580",
"h	c #277249",
"i	c #1B6B3F",
"j	c #1B6B3E",
"k	c #1A6A3E",
"l	c #1A6A3D",
"m	c #19693D",
"n	c #19683C",
"o	c #18673B",
"....................",
"....................",
"++++++++++++++++++++",
"++++++++++++++++++++",
"++++++++++++++++++++",
"@@@@@@@@@@@@@@@@@@@@",
"@@@@@@@@@@@@@@@@@@@@",
"@@@@@@@@@@@@@@@@@@@@",
"######$%&*=-;$######",
"#####>,'))))'*!#####",
"####>~))))))))~!####",
"{{{],))))))))))^/{{{",
"(((_'))))))))))':(((",
"<<<[))))))))))))-<<<",
"}}},)))))))))))),}}}",
"|||,))))))))))))^|||",
"1112))))))))))))3111",
"4445'))))))))))'6444",
"4447*))))))))))89444",
"0000a~))))))))bc0000",
"00000a8'))))'8c00000",
"ddddddef2**2ghdddddd",
"iiiiiiiiiiiiiiiiiiii",
"jjjjjjjjjjjjjjjjjjjj",
"kkkkkkkkkkkkkkkkkkkk",
"llllllllllllllllllll",
"mmmmmmmmmmmmmmmmmmmm",
"nnnnnnnnnnnnnnnnnnnn",
"nnnnnnnnnnnnnnnnnnnn",
"oooooooooooooooooooo"};
