/* XPM */
static char * hide_pressed_xpm[] = {
"20 30 55 1",
" 	c None",
".	c #247648",
"+	c #237547",
"@	c #227446",
"#	c #217345",
"$	c #317740",
"%	c #808929",
"&	c #B79519",
"*	c #D29C12",
"=	c #B6951A",
"-	c #5F8133",
";	c #D09B12",
">	c #DA9E10",
",	c #5E8133",
"'	c #D99D10",
")	c #207244",
"!	c #30763F",
"~	c #CF9B12",
"{	c #2F753F",
"]	c #207144",
"^	c #808828",
"/	c #7E8829",
"(	c #1F7143",
"_	c #B69519",
":	c #1F7043",
"<	c #D19B12",
"[	c #85610A",
"}	c #6D4F08",
"|	c #1E7042",
"1	c #86610A",
"2	c #87620A",
"3	c #1E6F42",
"4	c #B59419",
"5	c #1D6E41",
"6	c #7E8627",
"7	c #7C8628",
"8	c #2D723C",
"9	c #CE9B12",
"0	c #2B713C",
"a	c #1C6D40",
"b	c #5A7D2F",
"c	c #597D30",
"d	c #1B6C3F",
"e	c #2A703A",
"f	c #7C8627",
"g	c #B49419",
"h	c #7B8527",
"i	c #296F3B",
"j	c #1B6B3F",
"k	c #1B6B3E",
"l	c #1A6A3E",
"m	c #1A6A3D",
"n	c #19693D",
"o	c #19683C",
"p	c #18673B",
"....................",
"....................",
"++++++++++++++++++++",
"++++++++++++++++++++",
"++++++++++++++++++++",
"@@@@@@@@@@@@@@@@@@@@",
"@@@@@@@@@@@@@@@@@@@@",
"@@@@@@@@@@@@@@@@@@@@",
"######$%&**=%$######",
"#####-;>>>>>>;,#####",
"####-'>>>>>>>>',####",
")))!;>>>>>>>>>>~{)))",
"]]]^>>>>>>>>>>>>/]]]",
"(((&>>>>>>>>>>>>_(((",
":::<>>[}}}}}}[>>;:::",
"|||;>>1}}}}}}2>>~|||",
"333_>>>>>>>>>>>>4333",
"5556>>>>>>>>>>>>7555",
"5558;>>>>>>>>>>90555",
"aaaab'>>>>>>>>'caaaa",
"aaaaab~>>>>>>9caaaaa",
"ddddddefg<<ghidddddd",
"jjjjjjjjjjjjjjjjjjjj",
"kkkkkkkkkkkkkkkkkkkk",
"llllllllllllllllllll",
"mmmmmmmmmmmmmmmmmmmm",
"nnnnnnnnnnnnnnnnnnnn",
"oooooooooooooooooooo",
"oooooooooooooooooooo",
"pppppppppppppppppppp"};
