/* XPM */
static char * hide_prelight_xpm[] = {
"20 30 64 1",
" 	c None",
".	c #247648",
"+	c #237547",
"@	c #227446",
"#	c #217345",
"$	c #317740",
"%	c #868C2A",
"&	c #CBA323",
"*	c #E4AD21",
"=	c #E3AD21",
"-	c #CAA423",
";	c #858B2A",
">	c #5F8232",
",	c #E3AE21",
"'	c #F8C334",
")	c #FAC536",
"!	c #E2AE21",
"~	c #5F8133",
"{	c #EEB729",
"]	c #207244",
"^	c #30763F",
"/	c #E2AF22",
"(	c #2F753F",
"_	c #207144",
":	c #858B29",
"<	c #F8C333",
"[	c #838A2A",
"}	c #1F7143",
"|	c #CBA321",
"1	c #CAA322",
"2	c #1F7043",
"3	c #E3AF22",
"4	c #997921",
"5	c #7D621B",
"6	c #1E7042",
"7	c #9A7921",
"8	c #9B7A21",
"9	c #E2AD22",
"0	c #1E6F42",
"a	c #1D6E41",
"b	c #838928",
"c	c #F7C233",
"d	c #808829",
"e	c #2D723C",
"f	c #E1AD22",
"g	c #2B713C",
"h	c #1C6D40",
"i	c #5B7D2F",
"j	c #EEB628",
"k	c #597D30",
"l	c #E2AD21",
"m	c #1B6C3F",
"n	c #2A703A",
"o	c #808827",
"p	c #CAA321",
"q	c #7F8728",
"r	c #296F3B",
"s	c #1B6B3F",
"t	c #1B6B3E",
"u	c #1A6A3E",
"v	c #1A6A3D",
"w	c #19693D",
"x	c #19683C",
"y	c #18673B",
"....................",
"....................",
"++++++++++++++++++++",
"++++++++++++++++++++",
"++++++++++++++++++++",
"@@@@@@@@@@@@@@@@@@@@",
"@@@@@@@@@@@@@@@@@@@@",
"@@@@@@@@@@@@@@@@@@@@",
"######$%&*=-;$######",
"#####>,'))))'!~#####",
"####>{)))))))){~####",
"]]]^,))))))))))/(]]]",
"___:'))))))))))<[___",
"}}}|))))))))))))1}}}",
"2223))45555554))!222",
"666,))75555558))9666",
"000|))))))))))))1000",
"aaab'))))))))))cdaaa",
"aaae!))))))))))fgaaa",
"hhhhi{))))))))jkhhhh",
"hhhhhil<))))cfkhhhhh",
"mmmmmmnop,,pqrmmmmmm",
"ssssssssssssssssssss",
"tttttttttttttttttttt",
"uuuuuuuuuuuuuuuuuuuu",
"vvvvvvvvvvvvvvvvvvvv",
"wwwwwwwwwwwwwwwwwwww",
"xxxxxxxxxxxxxxxxxxxx",
"xxxxxxxxxxxxxxxxxxxx",
"yyyyyyyyyyyyyyyyyyyy"};
