/* XPM */
static char * hide_active_xpm[] = {
"20 30 60 1",
" 	c None",
".	c #247648",
"+	c #237547",
"@	c #227446",
"#	c #217345",
"$	c #317740",
"%	c #868C2A",
"&	c #CBA323",
"*	c #E4AD21",
"=	c #E3AD21",
"-	c #CAA423",
";	c #858B2A",
">	c #5F8232",
",	c #E3AE21",
"'	c #F8C334",
")	c #FAC536",
"!	c #E2AE21",
"~	c #5F8133",
"{	c #EEB729",
"]	c #207244",
"^	c #30763F",
"/	c #E2AF22",
"(	c #2F753F",
"_	c #207144",
":	c #858B29",
"<	c #F8C333",
"[	c #838A2A",
"}	c #1F7143",
"|	c #CBA321",
"1	c #CAA322",
"2	c #1F7043",
"3	c #E3AF22",
"4	c #1E7042",
"5	c #E2AD22",
"6	c #1E6F42",
"7	c #1D6E41",
"8	c #838928",
"9	c #F7C233",
"0	c #808829",
"a	c #2D723C",
"b	c #E1AD22",
"c	c #2B713C",
"d	c #1C6D40",
"e	c #5B7D2F",
"f	c #EEB628",
"g	c #597D30",
"h	c #E2AD21",
"i	c #1B6C3F",
"j	c #2A703A",
"k	c #808827",
"l	c #CAA321",
"m	c #7F8728",
"n	c #296F3B",
"o	c #1B6B3F",
"p	c #1B6B3E",
"q	c #1A6A3E",
"r	c #1A6A3D",
"s	c #19693D",
"t	c #19683C",
"u	c #18673B",
"....................",
"....................",
"++++++++++++++++++++",
"++++++++++++++++++++",
"++++++++++++++++++++",
"@@@@@@@@@@@@@@@@@@@@",
"@@@@@@@@@@@@@@@@@@@@",
"@@@@@@@@@@@@@@@@@@@@",
"######$%&*=-;$######",
"#####>,'))))'!~#####",
"####>{)))))))){~####",
"]]]^,))))))))))/(]]]",
"___:'))))))))))<[___",
"}}}|))))))))))))1}}}",
"2223))))))))))))!222",
"444,))))))))))))5444",
"666|))))))))))))1666",
"7778'))))))))))90777",
"777a!))))))))))bc777",
"dddde{))))))))fgdddd",
"dddddeh<))))9bgddddd",
"iiiiiijkl,,lmniiiiii",
"oooooooooooooooooooo",
"pppppppppppppppppppp",
"qqqqqqqqqqqqqqqqqqqq",
"rrrrrrrrrrrrrrrrrrrr",
"ssssssssssssssssssss",
"tttttttttttttttttttt",
"tttttttttttttttttttt",
"uuuuuuuuuuuuuuuuuuuu"};
