/* XPM */
static char * maximize_active_xpm[] = {
"20 30 56 1",
" 	c None",
".	c #247648",
"+	c #237547",
"@	c #227446",
"#	c #217345",
"$	c #207A42",
"%	c #1B9D32",
"&	c #1FC330",
"*	c #23D132",
"=	c #23D131",
"-	c #1B9D31",
";	c #1B8D37",
">	c #24D131",
",	c #36E746",
"'	c #39EA49",
")	c #1C8D38",
"!	c #2CDB3A",
"~	c #2BDB3A",
"{	c #207244",
"]	c #1F7941",
"^	c #23D032",
"/	c #1F7840",
"(	c #207144",
"_	c #1A9D31",
":	c #1B9C31",
"<	c #1F7143",
"[	c #1FC32F",
"}	c #1FC22F",
"|	c #1F7043",
"1	c #24D132",
"2	c #1E7042",
"3	c #1E6F42",
"4	c #1EC32F",
"5	c #1FC12F",
"6	c #1D6E41",
"7	c #199B2F",
"8	c #199B30",
"9	c #1C753E",
"0	c #23CF31",
"a	c #1B743D",
"b	c #1C6D40",
"c	c #188934",
"d	c #2BDB39",
"e	c #188835",
"f	c #1B6C3F",
"g	c #1A733B",
"h	c #189A2E",
"i	c #189A2F",
"j	c #19723C",
"k	c #1B6B3F",
"l	c #1B6B3E",
"m	c #1A6A3E",
"n	c #1A6A3D",
"o	c #19693D",
"p	c #19683C",
"q	c #18673B",
"....................",
"....................",
"++++++++++++++++++++",
"++++++++++++++++++++",
"++++++++++++++++++++",
"@@@@@@@@@@@@@@@@@@@@",
"@@@@@@@@@@@@@@@@@@@@",
"@@@@@@@@@@@@@@@@@@@@",
"######$%&*=&-$######",
"#####;>,'''',=)#####",
"####;!''''''''~)####",
"{{{]>''''''''''^/{{{",
"(((_,'''''''''',:(((",
"<<<[''''''''''''}<<<",
"|||1''''''''''''=|||",
"222>''''''''''''^222",
"3334''''''''''''5333",
"6667,'''''''''',8666",
"6669=''''''''''0a666",
"bbbbc~''''''''debbbb",
"bbbbbc^,'''',0ebbbbb",
"ffffffgh5==5ijffffff",
"kkkkkkkkkkkkkkkkkkkk",
"llllllllllllllllllll",
"mmmmmmmmmmmmmmmmmmmm",
"nnnnnnnnnnnnnnnnnnnn",
"oooooooooooooooooooo",
"pppppppppppppppppppp",
"pppppppppppppppppppp",
"qqqqqqqqqqqqqqqqqqqq"};
