/* XPM */
static char * maximize_prelight_xpm[] = {
"20 30 63 1",
" 	c None",
".	c #247648",
"+	c #237547",
"@	c #227446",
"#	c #217345",
"$	c #207A42",
"%	c #1B9D32",
"&	c #1FC330",
"*	c #23D132",
"=	c #23D131",
"-	c #1B9D31",
";	c #1B8D37",
">	c #24D131",
",	c #36E746",
"'	c #39EA49",
")	c #1C8D38",
"!	c #2CDB3A",
"~	c #2BDB3A",
"{	c #207244",
"]	c #1F7941",
"^	c #23D032",
"/	c #1F7840",
"(	c #207144",
"_	c #1A9D31",
":	c #34D643",
"<	c #1F7F28",
"[	c #1C7524",
"}	c #269D31",
"|	c #1B9C31",
"1	c #1F7143",
"2	c #1FC32F",
"3	c #1FC22F",
"4	c #1F7043",
"5	c #24D132",
"6	c #34D542",
"7	c #35D843",
"8	c #1F8028",
"9	c #1E7042",
"0	c #1E6F42",
"a	c #1EC32F",
"b	c #1FC12F",
"c	c #1D6E41",
"d	c #199B2F",
"e	c #199B30",
"f	c #1C753E",
"g	c #23CF31",
"h	c #1B743D",
"i	c #1C6D40",
"j	c #188934",
"k	c #2BDB39",
"l	c #188835",
"m	c #1B6C3F",
"n	c #1A733B",
"o	c #189A2E",
"p	c #189A2F",
"q	c #19723C",
"r	c #1B6B3F",
"s	c #1B6B3E",
"t	c #1A6A3E",
"u	c #1A6A3D",
"v	c #19693D",
"w	c #19683C",
"x	c #18673B",
"....................",
"....................",
"++++++++++++++++++++",
"++++++++++++++++++++",
"++++++++++++++++++++",
"@@@@@@@@@@@@@@@@@@@@",
"@@@@@@@@@@@@@@@@@@@@",
"@@@@@@@@@@@@@@@@@@@@",
"######$%&*=&-$######",
"#####;>,'''',=)#####",
"####;!''''''''~)####",
"{{{]>''''''''''^/{{{",
"(((_,''':<[[}'',|(((",
"1112''':':<[['''3111",
"4445'''<6'78['''=444",
"999>'''[<6'78'''^999",
"000a'''[[<:':'''b000",
"cccd,''}[[<:''',eccc",
"cccf=''''''''''ghccc",
"iiiij~''''''''kliiii",
"iiiiij^,'''',gliiiii",
"mmmmmmnob==bpqmmmmmm",
"rrrrrrrrrrrrrrrrrrrr",
"ssssssssssssssssssss",
"tttttttttttttttttttt",
"uuuuuuuuuuuuuuuuuuuu",
"vvvvvvvvvvvvvvvvvvvv",
"wwwwwwwwwwwwwwwwwwww",
"wwwwwwwwwwwwwwwwwwww",
"xxxxxxxxxxxxxxxxxxxx"};
