/* XPM */
static char * maximize_pressed_xpm[] = {
"20 30 57 1",
" 	c None",
".	c #247648",
"+	c #237547",
"@	c #227446",
"#	c #217345",
"$	c #207A42",
"%	c #199B31",
"&	c #14B225",
"*	c #13BD1F",
"=	c #15B225",
"-	c #199B30",
";	c #1C8C38",
">	c #13C11E",
",	c #1C8D38",
"'	c #13C01E",
")	c #207244",
"!	c #1F7941",
"~	c #13BC1F",
"{	c #13BC20",
"]	c #1F7840",
"^	c #207144",
"/	c #199A30",
"(	c #11B01B",
"_	c #0A6810",
":	c #09600F",
"<	c #0D8114",
"[	c #199930",
"}	c #1F7143",
"|	c #14B124",
"1	c #15B125",
"2	c #1F7043",
"3	c #12B21C",
"4	c #0A6A10",
"5	c #1E7042",
"6	c #1E6F42",
"7	c #15B124",
"8	c #1D6E41",
"9	c #17982E",
"0	c #18982F",
"a	c #1C753E",
"b	c #1B743D",
"c	c #1C6D40",
"d	c #188934",
"e	c #198835",
"f	c #1B6C3F",
"g	c #1A733B",
"h	c #17962D",
"i	c #14B024",
"j	c #17972E",
"k	c #19723C",
"l	c #1B6B3F",
"m	c #1B6B3E",
"n	c #1A6A3E",
"o	c #1A6A3D",
"p	c #19693D",
"q	c #19683C",
"r	c #18673B",
"....................",
"....................",
"++++++++++++++++++++",
"++++++++++++++++++++",
"++++++++++++++++++++",
"@@@@@@@@@@@@@@@@@@@@",
"@@@@@@@@@@@@@@@@@@@@",
"@@@@@@@@@@@@@@@@@@@@",
"######$%&**=-$######",
"#####;*>>>>>>*,#####",
"####;'>>>>>>>>',####",
")))!~>>>>>>>>>>{])))",
"^^^/>>>>(_::<>>>[^^^",
"}}}|>>>(>(_::>>>1}}}",
"222*>>>_(>34:>>>~222",
"555~>>>:_(>34>>>~555",
"666|>>>::_(>(>>>7666",
"8889>>><::_(>>>>0888",
"888a~>>>>>>>>>>{b888",
"ccccd'>>>>>>>>'ecccc",
"cccccd~>>>>>>{eccccc",
"ffffffghi**ijkffffff",
"llllllllllllllllllll",
"mmmmmmmmmmmmmmmmmmmm",
"nnnnnnnnnnnnnnnnnnnn",
"oooooooooooooooooooo",
"pppppppppppppppppppp",
"qqqqqqqqqqqqqqqqqqqq",
"qqqqqqqqqqqqqqqqqqqq",
"rrrrrrrrrrrrrrrrrrrr"};
