/* XPM */
static char * title_2_active_xpm[] = {
"5 30 21 1",
" 	c None",
".	c #247648",
"+	c #237547",
"@	c #227446",
"#	c #217345",
"$	c #207244",
"%	c #207144",
"&	c #1F7143",
"*	c #1F7043",
"=	c #1E7042",
"-	c #1E6F42",
";	c #1D6E41",
">	c #1C6D40",
",	c #1B6C3F",
"'	c #1B6B3F",
")	c #1B6B3E",
"!	c #1A6A3E",
"~	c #1A6A3D",
"{	c #19693D",
"]	c #19683C",
"^	c #18673B",
".....",
".....",
"+++++",
"+++++",
"+++++",
"@@@@@",
"@@@@@",
"@@@@@",
"#####",
"#####",
"#####",
"$$$$$",
"%%%%%",
"&&&&&",
"*****",
"=====",
"-----",
";;;;;",
";;;;;",
">>>>>",
">>>>>",
",,,,,",
"'''''",
")))))",
"!!!!!",
"~~~~~",
"{{{{{",
"]]]]]",
"]]]]]",
"^^^^^"};
